<svg width="55" height="55" viewBox="0 0 55 55" fill="none" xmlns="http://www.w3.org/2000/svg">
<circle cx="27.5" cy="27.5" r="27.5" fill="#F2F2F2"/>
<path fill-rule="evenodd" clip-rule="evenodd" d="M15 13C14.4477 13 14 13.4477 14 14V40C14 40.5523 14.4477 41 15 41H41C41.5523 41 42 40.5523 42 40V14C42 13.4477 41.5523 13 41 13H15ZM31.2969 27.1314L35.084 26.1167C36.2799 25.7962 38.0981 26.2037 38.2659 26.8298C38.4336 27.4558 37.0627 28.7178 35.8668 29.0383L27.6948 31.228C25.303 31.8689 20.1279 31.6898 20.1279 31.6898L17.7262 28.3073L18.9221 27.9868L21.7297 29.6949L25.9154 28.5734L20.3002 25.1572L22.2934 24.6231L31.2969 27.1314Z" fill="#66ACF7"/>
<path d="M25.2002 13H30.8002V21.4L28.0002 18.6L25.2002 21.4V13Z" fill="white"/>
</svg>
