<svg width="55" height="55" viewBox="0 0 55 55" fill="none" xmlns="http://www.w3.org/2000/svg">
<circle cx="27.5" cy="27.5" r="27.5" fill="#F2F2F2"/>
<path d="M26.2115 16.6032H28.168C28.168 16.7083 28.1326 16.8474 28.1326 16.988C28.1326 20.062 30.6131 22.5409 33.6855 22.5409C36.7595 22.5409 39.2385 20.0604 39.2385 16.988C39.2385 16.1148 39.0284 15.277 38.6791 14.543H38.5399H28.6904V14.5784L26.0707 15.9756C25.7214 16.1148 25.862 16.6032 26.2112 16.6032L26.2115 16.6032Z" fill="#7A5EF3"/>
<path d="M28.3411 13.2848C28.4107 13.424 28.5853 13.5291 28.76 13.5291H38.5044C38.7841 13.5291 38.9928 13.3189 38.9928 13.0406L38.9942 11.3992C38.9942 11.155 38.784 10.9449 38.5398 10.9108L27.3626 10.0021C26.9779 9.96663 26.6996 10.3869 26.9083 10.7362L28.3411 13.2848Z" fill="#7A5EF3"/>
<path d="M27.7138 36.6175L37.9126 23.7295H29.3893C27.6429 23.7295 26.0015 24.4976 24.8486 25.7897L21.705 29.3877C21.3202 29.8421 20.6926 29.9812 20.1332 29.8066L16.1859 28.374C14.9634 27.9196 13.6018 28.5841 13.1474 29.8066C12.6931 31.0291 13.3221 32.3907 14.58 32.8451L18.5273 34.2777C20.9368 35.1509 23.592 34.4524 25.2689 32.5313L27.7139 29.737L27.7138 36.6175Z" fill="#7A5EF3"/>
<path d="M40.0422 24.2534L29.1801 38.0502H37.2832V40.0764H27.7134V41.7532C27.7134 42.5569 28.3424 43.1859 29.1461 43.1859H40.5674C41.371 43.1859 42 42.5569 42 41.7532L41.9987 27.6414C41.9987 26.2087 41.2305 24.9521 40.0421 24.2536L40.0422 24.2534Z" fill="#7A5EF3"/>
</svg>
